<?xml version="1.0" encoding="utf-8"?>
<!-- Generator: Adobe Illustrator 23.0.1, SVG Export Plug-In . SVG Version: 6.00 Build 0)  -->
<svg version="1.1" id="Layer_1" xmlns="http://www.w3.org/2000/svg" xmlns:xlink="http://www.w3.org/1999/xlink" x="0px" y="0px"
	 viewBox="0 0 2060 2060" style="enable-background:new 0 0 2060 2060;" xml:space="preserve">
<style type="text/css">
	.st0{fill:#FFFFFF;}
</style>
<g>
	<path class="st0" d="M1033.54,1669.16c0,0.23,0,0.46,0,0.68c171.61,0,343.23-0.01,514.84,0.01
		c84.88,0.01,134.38-48.89,134.4-133.28c0.05-201.36-1.31-402.73,0.55-604.07c0.7-75.35-27.77-131.65-88.67-174.36
		c-152.91-107.24-305.04-215.58-457.97-322.78c-65.85-46.15-133.89-45.97-199.72,0.33C779.51,546.4,622.34,657.52,465.6,769.24
		c-49.63,35.37-74.43,84.69-74.4,146.27c0.09,208.22-0.19,416.45-0.14,624.67c0.02,78.84,49.59,128.88,127.64,128.94
		C690.31,1669.26,861.92,1669.16,1033.54,1669.16z M1521.84,233.33c-30.52-5.82-61.83-6.35-92.6-2c-0.12,0.02-0.25,0.04-0.37,0.05
		c-35.03,4.98-52.87,24.14-49.27,52.53c3.45,27.18,23.21,40.64,57.86,39.41c135.27-4.8,212.36,52.07,249.46,184.03
		c8.86,31.5,30.83,47.54,56.09,40.95c26.28-6.86,39.62-31.19,33.96-61.95C1753.46,358.58,1649.88,257.72,1521.84,233.33z
		 M1436.45,493.06c47.91-0.58,78.04,22.11,92.87,69.93c10.65,34.34,31.65,49.11,58.93,41.46c25.35-7.12,37.57-32.15,31.11-63.71
		c-17.05-83.19-101.14-147.31-185.88-141.73c-37.17,2.45-58.96,21.19-57.94,49.83C1376.56,477.69,1398.36,493.52,1436.45,493.06z"/>
	<path d="M1033.54,1669.16c-171.61,0-343.23,0.09-514.84-0.04c-78.05-0.06-127.62-50.1-127.64-128.94
		c-0.05-208.22,0.23-416.45,0.14-624.67c-0.03-61.59,24.78-110.9,74.4-146.27C622.34,657.52,779.51,546.4,936.96,435.69
		c65.83-46.29,133.88-46.48,199.72-0.33c152.94,107.2,305.07,215.54,457.97,322.78c60.91,42.71,89.37,99.01,88.67,174.36
		c-1.86,201.34-0.5,402.71-0.55,604.07c-0.02,84.4-49.53,133.29-134.4,133.28c-171.61-0.02-343.23-0.01-514.84-0.01
		C1033.54,1669.62,1033.54,1669.39,1033.54,1669.16z M1494.71,1510.2c8.4-0.65,15.02-7.57,15.07-16c0-0.03,0-0.07,0-0.1
		c0.19-192.14,0.87-384.28-0.68-576.4c-0.12-14.8-12.53-34.34-25.16-43.45c-138.65-100.03-278.63-198.2-417.79-297.52
		c-19.21-13.71-33.06-15.56-54.23-0.33c-137.98,99.2-276.98,196.98-416.5,294.02c-23.29,16.2-32.16,34.53-31.99,62.44
		c1.1,179.55,1.6,359.12,0.38,538.66c-0.22,31.84,9.23,41.01,40.82,40.88c289.35-1.18,578.7-0.85,868.05-1.08
		C1479.86,1511.33,1487.05,1510.79,1494.71,1510.2z"/>
	<path d="M1459.47,227.78c0.61-0.07,1.23-0.1,1.85-0.11c154.85-0.31,288.52,111.27,315.66,258.68c5.66,30.75-7.68,55.09-33.96,61.95
		c-25.26,6.59-47.23-9.45-56.09-40.95c-37.1-131.97-114.2-188.84-249.46-184.03c-34.65,1.23-54.42-12.23-57.86-39.41
		c-3.6-28.39,14.25-47.55,49.27-52.53C1440.75,229.69,1452.69,228.55,1459.47,227.78z"/>
	<path d="M1436.45,493.06c-38.09,0.46-59.89-15.37-60.92-44.23c-1.02-28.64,20.78-47.39,57.94-49.83
		c84.74-5.58,168.83,58.54,185.88,141.73c6.47,31.56-5.75,56.6-31.11,63.71c-27.28,7.66-48.28-7.12-58.93-41.46
		C1514.49,515.17,1484.36,492.48,1436.45,493.06z"/>
	<path class="st0" d="M1509.78,1494.2c-0.05,8.42-6.67,15.35-15.07,16c-7.66,0.59-14.85,1.13-22.04,1.13
		c-289.35,0.23-578.7-0.1-868.05,1.08c-31.59,0.13-41.04-9.05-40.82-40.88c1.22-179.55,0.73-359.11-0.38-538.66
		c-0.17-27.91,8.7-46.25,31.99-62.44c139.51-97.04,278.52-194.82,416.5-294.02c21.17-15.22,35.02-13.37,54.23,0.33
		c139.16,99.32,279.15,197.49,417.79,297.52c12.63,9.11,25.04,28.65,25.16,43.45c1.55,192.12,0.87,384.26,0.68,576.4
		C1509.78,1494.14,1509.78,1494.17,1509.78,1494.2z"/>
</g>
</svg>
