<?xml version="1.0" encoding="utf-8"?>
<!-- Generator: Adobe Illustrator 23.0.1, SVG Export Plug-In . SVG Version: 6.00 Build 0)  -->
<svg version="1.1" id="Layer_1" xmlns="http://www.w3.org/2000/svg" xmlns:xlink="http://www.w3.org/1999/xlink" x="0px" y="0px"
	 viewBox="0 0 2060 2060" style="enable-background:new 0 0 2060 2060;" xml:space="preserve">
<style type="text/css">
	.st0{fill:#FFFFFF;}
</style>
<g>
	<path class="st0" d="M1506.06,761.39c32.82-3.05,66.57-2.3,98.25-10.01c48.91-11.9,96.74-28.71,144.37-45.3
		c19.09-6.65,28.75-23.07,27.91-44.18c-0.79-20.12-10.17-34.28-30.27-38.54c-39.45-8.39-78.82-18.16-118.73-23.09
		c-68.15-8.39-134.8-19.72-196.75-51.96c-96.98-50.48-163.23-129.38-209.2-225.98c-22.38-47.02-38.01-97.23-57.6-145.64
		c-13.76-34-41.1-44.29-74.12-29.5c-34.57,15.48-54.75,51.19-46.52,100.35c11.93,71.26,25.41,142.83,46.24,211.88
		c22.12,73.36,63.21,138.43,120.15,190.63C1293.13,726.46,1393.77,760.03,1506.06,761.39z M1362.45,1236.27
		c1.4,13.66,2.7,37.34,6.38,60.65c17.11,108.21,68.97,199.36,139.27,281.4c16.89,19.72,39.42,21.78,60.29,14.53
		c20.18-7.02,27.33-27.31,24.36-48.46c-7.09-50.67-14.52-101.31-23.07-151.74c-14.66-86.33-12.29-170.67,22.92-252.58
		c35.71-83.09,92.38-149.73,160.46-207.37c28.73-24.33,60.7-44.92,88.96-69.75c24.08-21.17,24.25-45.42,6.3-71.77
		c-25.23-37.02-66.2-37.47-111.92-18.52c-93.64,38.8-180.87,89.15-252.52,163.46C1405.5,1017.4,1363.93,1113.05,1362.45,1236.27z
		 M984.91,287.83c0-22.97,1.07-46.01-0.3-68.9c-1.32-21.86-11.89-38.81-33.89-46.02c-23.15-7.59-40.19,3.9-52.37,21.25
		c-13.49,19.23-24.58,40.22-35.73,60.98c-29.18,54.41-51.64,113.68-87.93,162.77c-83.54,113.03-203.92,163.12-340.65,176.77
		c-42.97,4.29-86.43,3.55-129.66,5.33c-30.79,1.27-49.54,13.8-57.21,37.72c-8.01,24.93-0.05,55.45,22.08,70.26
		c17.86,11.94,37.53,23.25,58.04,28.81c86.86,23.56,175.97,28.29,264.94,19.33c96.71-9.73,184.44-44.05,254.89-113.96
		C945.41,544.61,985.46,423.95,984.91,287.83z M683.55,1267.21c1.56-153.79-39.34-253.46-120.48-334.8
		c-77.57-77.76-172.98-122.48-278.23-147.73c-22.59-5.42-46.79-4.02-60.5,20.55c-11.57,20.75-4.9,40.04,9.73,55.84
		c28.51,30.8,56.2,62.88,87.94,90.09c134.69,115.51,182.97,261.71,155.12,434.01c-8.16,50.53-26.4,99.36-38.8,149.29
		c-6,24.18-14,49.6,9.14,70.62c32.02,29.1,83.82,21.82,112.22-20.08C632.99,1476.85,679.59,1358.84,683.55,1267.21z
		 M1012.59,1564.61c80.68,2.83,157.71,21.94,228.6,59.8c48.32,25.8,92.57,59.12,139.81,87.09c13.11,7.77,31.34,13.8,45.64,11.35
		c40.33-6.89,63.87-53.8,43.49-89.62c-18.48-32.48-39.75-65.85-67.43-90.09c-51.55-45.14-106.94-86.49-163.89-124.72
		c-66.42-44.57-143.54-60.64-222.16-61.81c-59.71-0.89-117.73,15.12-171.97,41.11c-106.38,50.98-185.76,130.78-243.3,232.79
		c-8.8,15.59-9.57,33.85,2.26,49.36c11.88,15.55,29.11,23.14,47.15,15.53c39.86-16.8,80.02-33.73,117.58-55.01
		C844.57,1597.27,924.28,1567.7,1012.59,1564.61z M1500.19,226.9c-60.76-0.22-110.05,47.48-112.01,104.48
		c-2.28,66.43,45.36,117.96,111.85,117.45c63.87-0.48,109.81-46.59,111.78-110.89C1613.63,278.81,1560.58,227.1,1500.19,226.9z
		 M146.8,1239.9c-3.31,65.24,60.97,113.6,114.77,110.06c61.21-4.02,111.03-54.75,106.51-118.16c-4.3-60.41-52.89-106.6-115.08-104.9
		C192.57,1128.55,144.59,1179.6,146.8,1239.9z M658.62,340.31c8.31-52.68-45.37-111.83-109.59-111.85
		c-59.66-0.03-112.27,52.32-111.94,111.32c0.34,61.81,49.97,110.44,111.45,111.62C606.94,452.51,664.84,399.36,658.62,340.31z
		 M1791.72,1345.02c68.31,5.64,115.36-50.34,115.56-111.99c0.2-62.32-54.05-106.26-106.61-108.87
		c-63.95-3.19-118.9,55.82-116.49,106.26C1687.35,1296.41,1729.71,1344.81,1791.72,1345.02z M1032.2,1682.07
		c-66.62-4.44-117.68,45.92-116.92,115.41c0.52,48.1,42.56,105.34,113.1,104.35c62.41-0.88,110.24-47.71,110.25-109.81
		C1138.64,1730.42,1091.9,1682.13,1032.2,1682.07z"/>
	<path d="M1506.06,761.39c-112.3-1.36-212.93-34.93-296.28-111.33c-56.95-52.2-98.03-117.27-120.15-190.63
		c-20.81-69.03-34.31-140.61-46.24-211.88c-8.24-49.18,11.94-84.87,46.52-100.35c33.02-14.79,60.36-4.51,74.12,29.5
		c19.58,48.41,35.22,98.6,57.6,145.64c45.97,96.6,112.23,175.5,209.2,225.98c61.95,32.25,128.59,43.57,196.75,51.96
		c39.93,4.91,79.29,14.7,118.73,23.09c20.1,4.28,29.48,18.44,30.27,38.54c0.84,21.11-8.82,37.53-27.91,44.18
		c-47.63,16.59-95.45,33.39-144.37,45.3C1572.62,759.09,1538.88,758.34,1506.06,761.39z"/>
	<path d="M1362.45,1236.27c1.48-123.21,43.05-218.87,121.41-300.15c71.65-74.31,158.88-124.66,252.52-163.46
		c45.72-18.94,86.69-18.5,111.92,18.52c17.96,26.35,17.78,50.6-6.3,71.77c-28.25,24.84-60.21,45.41-88.96,69.75
		c-68.08,57.65-124.75,124.28-160.46,207.37c-35.22,81.91-37.58,166.25-22.92,252.58c8.57,50.44,15.98,101.08,23.07,151.74
		c2.96,21.14-4.19,41.45-24.36,48.46c-20.87,7.26-43.39,5.19-60.29-14.53c-70.29-82.04-122.16-173.19-139.27-281.4
		C1365.15,1273.6,1363.84,1249.92,1362.45,1236.27z"/>
	<path d="M984.91,287.83c0.56,136.12-39.5,256.78-137.78,354.33c-70.44,69.92-158.18,104.24-254.89,113.96
		c-88.96,8.95-178.08,4.23-264.94-19.33c-20.5-5.56-40.18-16.87-58.04-28.81c-22.13-14.81-30.09-45.34-22.08-70.26
		c7.68-23.91,26.42-36.45,57.21-37.72c43.23-1.78,86.7-1.04,129.66-5.33c136.74-13.66,257.12-63.73,340.66-176.77
		c36.29-49.09,58.74-108.36,87.93-162.77c11.13-20.76,22.24-41.76,35.73-60.98c12.17-17.34,29.2-28.84,52.37-21.25
		c21.99,7.21,32.57,24.17,33.89,46.02C985.97,241.82,984.91,264.86,984.91,287.83z"/>
	<path d="M683.55,1267.21c-3.96,91.63-50.56,209.66-123.86,317.79c-28.4,41.9-80.2,49.18-112.22,20.08
		c-23.14-21.02-15.14-46.44-9.14-70.62c12.4-49.92,30.64-98.77,38.8-149.29c27.85-172.3-20.45-318.5-155.12-434.01
		c-31.74-27.22-59.42-59.3-87.94-90.09c-14.63-15.8-21.31-35.09-9.73-55.84c13.71-24.57,37.91-25.97,60.5-20.55
		c105.25,25.26,200.67,69.97,278.23,147.73C644.22,1013.75,685.11,1113.41,683.55,1267.21z"/>
	<path d="M1012.59,1564.59c-88.3,3.1-168.01,32.68-244.22,75.82c-37.56,21.26-77.71,38.2-117.58,55.01
		c-18.04,7.6-35.27,0.01-47.15-15.53c-11.84-15.51-11.05-33.77-2.26-49.36c57.54-102.02,136.92-181.81,243.3-232.79
		c54.24-25.99,112.26-42,171.97-41.11c78.61,1.17,155.74,17.24,222.16,61.81c56.95,38.23,112.35,79.58,163.89,124.72
		c27.68,24.24,48.95,57.61,67.43,90.09c20.38,35.82-3.16,82.73-43.49,89.62c-14.29,2.45-32.53-3.58-45.64-11.35
		c-47.25-27.97-91.5-61.29-139.81-87.09C1170.29,1586.56,1093.27,1567.45,1012.59,1564.59z"/>
	<path d="M1500.19,226.9c60.37,0.22,113.43,51.91,111.62,111.04c-1.97,64.3-47.91,110.41-111.78,110.89
		c-66.49,0.51-114.14-51.02-111.85-117.45C1390.15,274.37,1439.44,226.68,1500.19,226.9z"/>
	<path d="M146.8,1239.9c-2.21-60.29,45.77-111.33,106.21-113c62.18-1.7,110.76,44.48,115.08,104.9
		c4.52,63.4-45.3,114.14-106.51,118.16C207.79,1353.49,143.5,1305.13,146.8,1239.9z"/>
	<path d="M658.62,340.31c6.22,59.04-51.68,112.2-110.09,111.08c-61.48-1.17-111.1-49.82-111.45-111.62
		c-0.33-58.99,52.29-111.35,111.94-111.32C613.24,228.49,666.92,287.64,658.62,340.31z"/>
	<path d="M1791.72,1345.02c-62.01-0.22-104.38-48.61-107.54-114.61c-2.41-50.44,52.53-109.44,116.49-106.26
		c52.56,2.61,106.8,46.55,106.61,108.87C1907.08,1294.69,1860.03,1350.66,1791.72,1345.02z"/>
	<path d="M1032.2,1682.07c59.7,0.06,106.46,48.37,106.43,109.96c-0.01,62.1-47.85,108.93-110.25,109.81
		c-70.53,0.99-112.58-56.26-113.1-104.35C914.52,1727.97,965.56,1677.62,1032.2,1682.07z"/>
</g>
</svg>
