<svg height="512pt" viewBox="0 0 512 512" width="512pt" xmlns="http://www.w3.org/2000/svg"><path d="m237.605469 197.886719 23.203125.003906c4.175781-10.605469 12.632812-19.0625 23.234375-23.234375v-23.203125c-22.84375 5.578125-40.859375 23.589844-46.4375 46.433594zm0 0"/><path d="m299.042969 201.808594c-6.109375 0-11.082031 4.972656-11.082031 11.082031s4.972656 11.082031 11.082031 11.082031h.003906c6.109375 0 11.078125-4.972656 11.078125-11.082031 0-6.113281-4.96875-11.082031-11.082031-11.082031zm0 0"/><path d="m260.808594 227.890625-23.203125-.003906c5.578125 22.847656 23.59375 40.859375 46.4375 46.4375v-23.203125c-10.601563-4.171875-19.058594-12.628906-23.234375-23.230469zm0 0"/><path d="m314.042969 151.453125v23.203125c10.601562 4.171875 19.058593 12.628906 23.234375 23.234375h23.203125c-5.578125-22.84375-23.59375-40.859375-46.4375-46.4375zm0 0"/><path d="m495.402344 142.121094-125.59375-125.589844c-10.65625-10.660156-24.871094-16.53125-40.027344-16.53125-15.152344 0-29.367188 5.871094-40.027344 16.53125l-247.230468 247.230469c-56.699219 56.695312-56.699219 148.949219 0 205.648437 27.464843 27.464844 63.980468 42.589844 102.824218 42.589844 38.839844 0 75.359375-15.128906 102.820313-42.589844l247.234375-247.230468c22.070312-22.074219 22.070312-57.988282 0-80.058594zm-157.785156-62.792969c2.789062-2.796875 6.660156-4.398437 10.609374-4.398437 3.941407 0 7.8125 1.601562 10.601563 4.398437 2.800781 2.792969 4.398437 6.660156 4.398437 10.601563 0 3.949218-1.601562 7.808593-4.398437 10.609374-2.789063 2.789063-6.652344 4.390626-10.601563 4.390626-3.949218 0-7.820312-1.601563-10.609374-4.390626-2.789063-2.789062-4.398438-6.660156-4.398438-10.609374 0-3.941407 1.609375-7.808594 4.398438-10.601563zm-141.398438 215.171875c2.789062-2.789062 6.660156-4.390625 10.609375-4.390625s7.808594 1.601563 10.597656 4.390625c2.800781 2.789062 4.402344 6.660156 4.402344 10.609375s-1.601563 7.808594-4.402344 10.601563c-2.789062 2.800781-6.648437 4.398437-10.597656 4.398437s-7.8125-1.601563-10.609375-4.398437c-2.792969-2.789063-4.390625-6.660157-4.390625-10.601563 0-3.949219 1.597656-7.820313 4.390625-10.609375zm-49.179688-49.179688c2.789063-2.789062 6.660157-4.390624 10.597657-4.390624 3.960937 0 7.820312 1.601562 10.609375 4.390624 2.800781 2.789063 4.402344 6.660157 4.402344 10.601563 0 3.949219-1.601563 7.816406-4.402344 10.609375-2.789063 2.789062-6.648438 4.390625-10.609375 4.390625-3.9375 0-7.808594-1.601563-10.597657-4.390625-2.792968-2.792969-4.390624-6.660156-4.390624-10.609375 0-3.941406 1.597656-7.8125 4.390624-10.601563zm-36.890624 36.890626c2.789062-2.800782 6.660156-4.402344 10.609374-4.402344 3.949219 0 7.808594 1.601562 10.597657 4.402344 2.800781 2.789062 4.402343 6.660156 4.402343 10.597656 0 3.953125-1.601562 7.820312-4.402343 10.613281-2.789063 2.789063-6.648438 4.386719-10.597657 4.386719-3.949218 0-7.820312-1.597656-10.609374-4.386719-2.792969-2.792969-4.390626-6.660156-4.390626-10.613281 0-3.949219 1.597657-7.808594 4.390626-10.597656zm-41.28125 47.488281c0-3.949219 1.601562-7.820313 4.390624-10.609375 2.800782-2.789063 6.660157-4.390625 10.609376-4.390625 3.949218 0 7.808593 1.601562 10.609374 4.390625 2.789063 2.789062 4.390626 6.660156 4.390626 10.609375s-1.601563 7.8125-4.390626 10.609375c-2.800781 2.789062-6.660156 4.390625-10.609374 4.390625-3.949219 0-7.808594-1.601563-10.609376-4.390625-2.789062-2.796875-4.390624-6.660156-4.390624-10.609375zm37.910156 96.671875c-2.800782 2.800781-6.660156 4.398437-10.609375 4.398437s-7.8125-1.601562-10.609375-4.398437c-2.789063-2.792969-4.390625-6.660156-4.390625-10.601563 0-3.949219 1.601562-7.820312 4.390625-10.609375 2.800781-2.789062 6.660156-4.390625 10.609375-4.390625s7.820312 1.601563 10.609375 4.390625c2.789062 2.789063 4.390625 6.660156 4.390625 10.609375s-1.601563 7.808594-4.390625 10.601563zm36.878906-36.882813c-2.789062 2.792969-6.660156 4.390625-10.609375 4.390625-3.9375 0-7.808594-1.597656-10.597656-4.390625-2.792969-2.789062-4.402344-6.660156-4.402344-10.609375 0-3.949218 1.609375-7.820312 4.402344-10.609375 2.789062-2.789062 6.65625-4.390625 10.597656-4.390625 3.949219 0 7.820313 1.601563 10.609375 4.390625 2.792969 2.800781 4.402344 6.660157 4.402344 10.609375 0 3.949219-1.609375 7.8125-4.402344 10.609375zm11.28125-47.5c0-3.949219 1.601562-7.808593 4.398438-10.597656 2.792968-2.800781 6.652343-4.402344 10.601562-4.402344s7.808594 1.601563 10.609375 4.402344c2.789063 2.789063 4.390625 6.648437 4.390625 10.597656s-1.601562 7.820313-4.390625 10.609375c-2.800781 2.792969-6.660156 4.390625-10.609375 4.390625s-7.808594-1.597656-10.601562-4.390625c-2.796876-2.789062-4.398438-6.65625-4.398438-10.609375zm37.898438 96.683594c-2.789063 2.789063-6.660157 4.386719-10.597657 4.386719-3.949219 0-7.820312-1.597656-10.609375-4.386719-2.792968-2.800781-4.402344-6.660156-4.402344-10.613281 0-3.9375 1.609376-7.808594 4.402344-10.609375 2.789063-2.789063 6.660156-4.390625 10.609375-4.390625s7.808594 1.601562 10.597657 4.390625c2.792968 2.800781 4.402343 6.671875 4.402343 10.609375 0 3.953125-1.609375 7.8125-4.402343 10.613281zm36.890624-36.890625c-2.800781 2.789062-6.660156 4.398438-10.609374 4.398438-3.949219 0-7.808594-1.609376-10.609376-4.398438-2.789062-2.792969-4.390624-6.660156-4.390624-10.601562 0-3.949219 1.601562-7.820313 4.390624-10.609376 2.800782-2.789062 6.660157-4.390624 10.609376-4.390624 3.949218 0 7.820312 1.601562 10.609374 4.390624 2.789063 2.789063 4.390626 6.660157 4.390626 10.609376 0 3.941406-1.601563 7.808593-4.390626 10.601562zm36.890626-36.882812c-2.800782 2.789062-6.660157 4.390624-10.609376 4.390624-3.949218 0-7.808593-1.597656-10.609374-4.390624-2.792969-2.789063-4.390626-6.660157-4.390626-10.609376 0-3.949218 1.597657-7.820312 4.390626-10.609374 2.800781-2.789063 6.660156-4.390626 10.609374-4.390626 3.949219 0 7.808594 1.601563 10.609376 4.390626 2.789062 2.789062 4.390624 6.660156 4.390624 10.609374 0 3.949219-1.601562 7.8125-4.390624 10.609376zm32.425781-58.757813c-51.421875-.003906-93.25-41.835937-93.25-93.253906 0-51.414063 41.832031-93.246094 93.25-93.246094s93.25 41.832031 93.25 93.25c0 51.414063-41.832031 93.246094-93.25 93.25zm133.5625-131.832031c-2.789063 2.800781-6.65625 4.402344-10.609375 4.402344-3.949219 0-7.816406-1.601563-10.605469-4.402344-2.792969-2.789063-4.394531-6.65625-4.394531-10.597656 0-3.949219 1.601562-7.8125 4.394531-10.609376 2.796875-2.792968 6.667969-4.390624 10.605469-4.390624 3.953125 0 7.8125 1.597656 10.609375 4.390624 2.792969 2.789063 4.390625 6.660157 4.390625 10.609376 0 3.949218-1.597656 7.808593-4.390625 10.597656zm0 0"/><path d="m314.042969 251.125v23.199219c22.84375-5.578125 40.855469-23.589844 46.4375-46.433594h-23.203125c-4.175782 10.601563-12.632813 19.058594-23.234375 23.234375zm0 0"/></svg>