<?xml version="1.0" encoding="utf-8"?>
<!-- Generator: Adobe Illustrator 23.0.1, SVG Export Plug-In . SVG Version: 6.00 Build 0)  -->
<svg version="1.1" id="Layer_1" xmlns="http://www.w3.org/2000/svg" xmlns:xlink="http://www.w3.org/1999/xlink" x="0px" y="0px"
	 viewBox="0 0 2060 2060" style="enable-background:new 0 0 2060 2060;" xml:space="preserve">
<path d="M1315.24,775.65l19.95,19.95l127.22-127.22l-19.95-19.94c-227.88-227.88-597.91-227.88-825.79,0l-19.95,19.94L723.94,795.6
	l19.95-19.95c76.18-76.17,177.63-118.13,285.67-118.13C1137.61,657.52,1239.07,699.49,1315.24,775.65z M724.54,716.43l-47.5-47.52
	c199.8-179.84,505.12-179.97,705.07,0l-47.52,47.52C1161,562.7,898.16,562.68,724.54,716.43z"/>
<path d="M918.53,950.3c61.22-61.22,160.85-61.22,222.08,0l19.95,19.94l127.21-127.21l-19.94-19.95
	c-131.38-131.37-345.14-131.37-476.52,0l-19.94,19.95l127.21,127.21L918.53,950.3z M1206.98,844.03l-47.74,47.74
	c-76.17-58.46-183.26-58.4-259.35,0l-47.74-47.74C955.02,759.92,1104.12,759.92,1206.98,844.03z"/>
<path d="M939.61,1061.33c0,49.6,40.36,89.95,89.96,89.95s89.95-40.35,89.95-89.95c0-49.6-40.35-89.95-89.95-89.95
	S939.61,1011.73,939.61,1061.33z M1063.1,1061.33c0,18.5-15.05,33.53-33.53,33.53c-18.5,0-33.54-15.05-33.54-33.53
	c0-18.48,15.05-33.53,33.54-33.53C1048.05,1027.8,1063.1,1042.85,1063.1,1061.33z"/>
<path d="M759.18,1532.42h59.11v67.22h-27.11v56.42h27.11v59.74h-27.11v56.42h27.11v59.93h-27.11v56.42h27.11v4.72L924.98,2012
	h209.18l106.68-118.72v-4.72h27.11v-56.42h-27.11v-59.93h27.11v-56.42h-27.11v-59.74h27.11v-56.42h-27.11v-67.22h59.11v-221.21
	H759.18V1532.42z M1109,1955.58H950.13l-60.21-67.01h279.31L1109,1955.58z M1184.42,1832.15h-309.7v-59.95h309.7V1832.15z
	 M1184.42,1715.8h-309.7v-59.74h309.7V1715.8z M1184.42,1599.64h-309.7v-67.22h309.7V1599.64z M815.6,1367.63h427.92V1476H815.6
	V1367.63z"/>
<path d="M1486.7,217.54l97.51-97.51l39.91,39.89l-97.51,97.51L1486.7,217.54z"/>
<path d="M435.01,1269.16l97.53-97.53l39.89,39.91l-97.51,97.51L435.01,1269.16z"/>
<path d="M1486.66,1211.46l39.89-39.89l97.51,97.51l-39.89,39.91L1486.66,1211.46z"/>
<path d="M435.04,159.86l39.9-39.89l97.51,97.51l-39.9,39.89L435.04,159.86z"/>
<path d="M1704.22,686.28h137.9v56.42h-137.9V686.28z"/>
<path d="M217,686.28h137.92v56.42H217V686.28z"/>
<path d="M1029.57,86.22c-346.3,0-628.05,281.73-628.05,628.03c0,249.8,147.98,475.82,377,575.8l22.58-51.72
	c-208.46-91.01-343.16-296.72-343.16-524.08c0-315.18,256.43-571.61,571.63-571.61c315.18,0,571.61,256.43,571.61,571.61
	c0,227.37-134.7,433.08-343.14,524.08l22.57,51.72c229.01-99.98,377-326,377-575.8C1657.6,367.95,1375.86,86.22,1029.57,86.22z"/>
<path d="M1208.86,1450.38h-91.84v-56.42h91.84V1450.38z M1079.41,1450.38h-56.42v-56.42h56.42V1450.38z M985.38,1450.38h-56.42
	v-56.42h56.42V1450.38z"/>
<path d="M1458.83,1031.92l-45.31-33.6c61.25-82.62,93.64-180.84,93.64-284.07c0-66.69-13.55-131.25-40.24-191.87l51.63-22.76
	c29.88,67.85,45.03,140.05,45.03,214.63C1563.57,829.68,1527.35,939.52,1458.83,1031.92z M1451.39,490.45
	c-8.3-15.59-17.6-30.9-27.61-45.52l46.53-31.9c11.2,16.34,21.58,33.45,30.87,50.89L1451.39,490.45z M1402.63,416.4
	c-11.05-13.8-22.99-27.15-35.53-39.68l39.9-39.89c13.99,14,27.34,28.91,39.68,44.34L1402.63,416.4z"/>
</svg>
