<svg height="512pt" viewBox="-40 0 512 512" width="512pt" xmlns="http://www.w3.org/2000/svg"><path d="m291.984375 183.296875 5.304687 5.304687 33.824219-33.824218-5.304687-5.300782c-60.585938-60.585937-158.964844-60.585937-219.550782 0l-5.304687 5.300782 33.824219 33.824218 5.304687-5.304687c20.253907-20.25 47.226563-31.40625 75.949219-31.40625 28.726562 0 55.703125 11.15625 75.953125 31.40625zm-157.046875-15.746094-12.628906-12.632812c53.121094-47.8125 134.292968-47.847657 187.453125 0l-12.632813 12.632812c-46.152344-40.871093-116.03125-40.875-162.191406 0zm0 0"/><path d="m186.511719 229.730469c16.277343-16.277344 42.765625-16.277344 59.042969 0l5.304687 5.300781 33.820313-33.820312-5.300782-5.304688c-34.929687-34.925781-91.761718-34.925781-126.691406 0l-5.300781 5.304688 33.820312 33.820312zm76.691406-28.253907-12.691406 12.691407c-20.25-15.542969-48.722657-15.527344-68.953125 0l-12.691406-12.691407c27.347656-22.363281 66.988281-22.363281 94.335937 0zm0 0"/><path d="m192.117188 259.25c0 13.1875 10.730468 23.914062 23.917968 23.914062s23.914063-10.726562 23.914063-23.914062-10.726563-23.914062-23.914063-23.914062-23.917968 10.726562-23.917968 23.914062zm32.832031 0c0 4.917969-4 8.914062-8.914063 8.914062-4.917968 0-8.917968-4-8.917968-8.914062s4-8.914062 8.917968-8.914062c4.914063 0 8.914063 4 8.914063 8.914062zm0 0"/><path d="m144.148438 384.496094h15.714843v17.871094h-7.207031v15h7.207031v15.882812h-7.207031v15h7.207031v15.933594h-7.207031v15h7.207031v1.253906l28.363281 31.5625h55.613282l28.363281-31.5625v-1.253906h7.207031v-15h-7.207031v-15.933594h7.207031v-15h-7.207031v-15.882812h7.207031v-15h-7.207031v-17.871094h15.714844v-58.8125h-143.769531zm93.003906 112.503906h-42.238282l-16.007812-17.816406h74.257812zm20.050781-32.816406h-82.339844v-15.9375h82.339844zm0-30.933594h-82.339844v-15.882812h82.339844zm0-30.882812h-82.339844v-17.871094h82.339844zm-98.054687-61.683594h113.769531v28.8125h-113.769531zm0 0"/><path d="m337.570312 34.914062 25.925782-25.925781 10.609375 10.605469-25.925781 25.925781zm0 0"/><path d="m57.960938 314.503906 25.929687-25.929687 10.605469 10.609375-25.925782 25.925781zm0 0"/><path d="m337.558594 299.164062 10.605468-10.605468 25.925782 25.925781-10.605469 10.609375zm0 0"/><path d="m57.96875 19.578125 10.609375-10.605469 25.925781 25.925782-10.609375 10.605468zm0 0"/><path d="m395.402344 159.535156h36.664062v15h-36.664062zm0 0"/><path d="m0 159.535156h36.667969v15h-36.667969zm0 0"/><path d="m216.035156 0c-92.070312 0-166.976562 74.902344-166.976562 166.972656 0 66.414063 39.34375 126.503906 100.230468 153.085938l6.003907-13.75c-55.421875-24.195313-91.234375-78.886719-91.234375-139.335938 0-83.796875 68.175781-151.972656 151.976562-151.972656 83.796875 0 151.972656 68.175781 151.972656 151.972656 0 60.449219-35.8125 115.140625-91.230468 139.335938l6 13.75c60.886718-26.582032 100.230468-86.671875 100.230468-153.085938 0-92.070312-74.90625-166.972656-166.972656-166.972656zm0 0"/><path d="m263.703125 362.683594h-24.417969v-15h24.417969zm-34.417969 0h-15v-15h15zm-25 0h-15v-15h15zm0 0"/><path d="m330.160156 251.429688-12.046875-8.933594c16.285157-21.964844 24.894531-48.078125 24.894531-75.523438 0-17.730468-3.601562-34.894531-10.699218-51.011718l13.726562-6.050782c7.945313 18.039063 11.972656 37.234375 11.972656 57.0625 0 30.6875-9.628906 59.890625-27.847656 84.457032zm-1.976562-143.957032c-2.207032-4.144531-4.679688-8.214844-7.339844-12.101562l12.371094-8.480469c2.976562 4.34375 5.738281 8.894531 8.207031 13.53125zm-12.964844-19.6875c-2.9375-3.667968-6.113281-7.21875-9.445312-10.550781l10.609374-10.605469c3.71875 3.722656 7.269532 7.6875 10.550782 11.789063zm0 0"/></svg>