<?xml version="1.0" encoding="utf-8"?>
<!-- Generator: Adobe Illustrator 23.0.1, SVG Export Plug-In . SVG Version: 6.00 Build 0)  -->
<svg version="1.1" id="Layer_1" xmlns="http://www.w3.org/2000/svg" xmlns:xlink="http://www.w3.org/1999/xlink" x="0px" y="0px"
	 viewBox="0 0 2060 2060" style="enable-background:new 0 0 2060 2060;" xml:space="preserve">
<path d="M2033.89,697.78L518.68,136.42c-19.38-7.16-40.91,2.75-48.06,22.14c-0.02,0.02-0.02,0.03-0.03,0.05L302.86,615.18
	c-7.13,19.4,2.81,40.91,22.21,48.04h0.03l175.63,64.49l-38.7,105.43c-7.11,19.4,2.83,40.88,22.22,48.01l351.33,128.99l-25.82,70.28
	c-23.46,62.95-1.57,133.81,53.34,172.52v190.98H359.56c-24.37-55.72-74.25-96.18-133.82-108.52v-78.59
	c0-20.67-16.74-37.43-37.43-37.43H37.43c-20.67,0-37.43,16.76-37.43,37.43v598.77c0,20.68,16.76,37.43,37.43,37.43h150.88
	c20.68,0,37.43-16.74,37.43-37.43V1777c59.57-12.36,109.45-52.8,133.82-108.54H863.1v37.43c0,62,50.26,112.28,112.26,112.28
	s112.28-50.27,112.28-112.28v-414.57c34.02-16.87,60.29-46.13,73.39-81.78l25.82-70.28l316.18,116.02
	c4.13,1.52,8.48,2.29,12.88,2.29c15.69,0,29.73-9.78,35.15-24.52l14.02-38.21c121.78,22.91,239.07-57.23,261.96-178.99
	c8.47-45,2.97-91.5-15.75-133.28l226.86-116.49c18.39-9.42,25.66-31.98,16.24-50.37c-4.27-8.36-11.53-14.79-20.32-18.05
	L2033.89,697.78z M937.94,1287.04l30.99,11.23c14.1,5.06,28.9,7.96,43.86,8.61v137.04h-74.85V1287.04z M150.9,1818.16H74.85v-523.93
	h76.05V1818.16z M300.58,1593.63c-0.06,47.56-30.03,89.94-74.85,105.87V1412.9c44.82,15.91,74.79,58.3,74.85,105.87V1593.63z
	 M376.6,1518.77h636.19v74.85H376.6V1518.77z M975.36,1743.31c-20.67,0-37.43-16.76-37.43-37.43v-37.43h74.85v37.43
	C1012.79,1726.56,996.03,1743.31,975.36,1743.31z M1116.6,1113.48l-25.82,70.28c-14.26,38.76-57.25,58.64-96.04,44.41l-70.39-25.79
	c-38.79-14.24-58.71-57.25-44.46-96.05c0,0,0,0,0-0.02l25.84-70.23l189.69,69.64L1116.6,1113.48z M1493.72,1172.24L545.18,823.92
	l25.84-70.28l562.06,206.4c13.3,4.84,28.22,1.81,38.57-7.87l105.02-98.86l294.44,108.15L1493.72,1172.24z M1746.75,1025.97
	c-23.72,63.94-87.49,103.89-155.36,97.31l57.83-157.52l94.45-48.64C1758.45,951.7,1759.55,990.62,1746.75,1025.97z M1620.43,896.58
	c-1.98,0.17-3.94,0.52-5.87,1.04L1280.89,775.1c-13.3-4.88-28.22-1.85-38.56,7.85l-105.15,98.88L386.02,605.98L527.9,219.66
	l1400.22,518.76L1620.43,896.58z"/>
<path d="M692.86,638.9l25.79-70.27l70.27,25.8l-25.8,70.27L692.86,638.9z"/>
<path d="M833.37,690.49l25.79-70.27l70.27,25.8l-25.8,70.25L833.37,690.49z"/>
<path d="M973.89,742.11l25.8-70.27l70.25,25.8l-25.8,70.27L973.89,742.11z"/>
</svg>
