<?xml version="1.0" encoding="utf-8"?>
<!-- Generator: Adobe Illustrator 23.0.1, SVG Export Plug-In . SVG Version: 6.00 Build 0)  -->
<svg version="1.1" id="Layer_1" xmlns="http://www.w3.org/2000/svg" xmlns:xlink="http://www.w3.org/1999/xlink" x="0px" y="0px"
	 viewBox="0 0 2060 2060" style="enable-background:new 0 0 2060 2060;" xml:space="preserve">
<path d="M2044.3,946.93l-107.52,117.88l-92.93-84.77v638.2h-159.55V834.48l-662.14-604.06L360,834.48v783.75H200.46V980.04
	l-92.93,84.77L0,946.93L1022.15,14.45L2044.3,946.93z M1157.76,1071.77c0-77.09-62.5-139.61-139.61-139.61
	c-77.09,0-139.61,62.51-139.61,139.61c0,47.43,23.68,89.32,59.83,114.54v616.54c-36.15,25.24-59.83,67.11-59.83,114.54
	c0,77.11,62.51,139.61,139.61,139.61c77.11,0,139.61-62.5,139.61-139.61c0-47.43-23.68-89.31-59.83-114.54v-616.54
	C1134.09,1161.08,1157.76,1119.2,1157.76,1071.77z M663.16,1171.49c-77.11,0-139.61,62.5-139.61,139.61
	c0,47.43,23.68,89.31,59.83,114.54v411.97H394.77c-25.22-36.15-67.11-59.83-114.54-59.83c-77.09,0-139.61,62.51-139.61,139.61
	c0,77.11,62.51,139.61,139.61,139.61c47.43,0,89.32-23.68,114.54-59.83h348.17v-571.53c36.15-25.24,59.83-67.11,59.83-114.54
	C802.76,1233.99,740.25,1171.49,663.16,1171.49z M1768.05,1777.79c-47.43,0-89.31,23.68-114.54,59.83h-192.59v-332.2
	c36.15-25.24,59.83-67.11,59.83-114.54c0-77.11-62.5-139.61-139.61-139.61c-77.11,0-139.61,62.5-139.61,139.61
	c0,47.43,23.68,89.31,59.83,114.54v491.75h352.14c25.24,36.15,67.11,59.83,114.54,59.83c77.11,0,139.61-62.5,139.61-139.61
	C1907.65,1840.3,1845.16,1777.79,1768.05,1777.79z"/>
</svg>
