<?xml version="1.0" encoding="utf-8"?>
<!-- Generator: Adobe Illustrator 23.0.1, SVG Export Plug-In . SVG Version: 6.00 Build 0)  -->
<svg version="1.1" id="Layer_1" xmlns="http://www.w3.org/2000/svg" xmlns:xlink="http://www.w3.org/1999/xlink" x="0px" y="0px"
	 viewBox="0 0 2060 2060" style="enable-background:new 0 0 2060 2060;" xml:space="preserve">
<style type="text/css">
	.st0{fill:#FFFFFF;}
</style>
<g>
	<path class="st0" d="M1412.04,827.64c25.86-2.4,52.45-1.81,77.41-7.89c38.54-9.38,76.22-22.62,113.75-35.69
		c15.04-5.24,22.65-18.18,21.99-34.81c-0.62-15.85-8.01-27.01-23.85-30.37c-31.08-6.61-62.1-14.31-93.55-18.19
		c-53.7-6.61-106.21-15.54-155.02-40.94c-76.41-39.77-128.61-101.94-164.83-178.05c-17.63-37.05-29.95-76.61-45.38-114.75
		c-10.84-26.79-32.38-34.9-58.4-23.24c-27.24,12.2-43.14,40.33-36.65,79.07c9.4,56.15,20.02,112.54,36.43,166.94
		c17.43,57.8,49.8,109.07,94.67,150.2C1244.27,800.12,1323.57,826.57,1412.04,827.64z M1298.89,1201.8
		c1.1,10.76,2.13,29.42,5.03,47.79c13.48,85.26,54.34,157.08,109.73,221.72c13.31,15.54,31.06,17.16,47.5,11.45
		c15.9-5.53,21.53-21.52,19.19-38.18c-5.59-39.92-11.44-79.82-18.18-119.56c-11.55-68.02-9.68-134.47,18.06-199.01
		c28.14-65.47,72.79-117.97,126.43-163.39c22.64-19.17,47.83-35.39,70.09-54.96c18.97-16.68,19.11-35.79,4.96-56.55
		c-19.88-29.17-52.16-29.52-88.18-14.59c-73.78,30.57-142.51,70.24-198.96,128.79C1332.81,1029.35,1300.06,1104.72,1298.89,1201.8z
		 M1001.42,454.52c0-18.1,0.84-36.25-0.24-54.29c-1.04-17.22-9.37-30.58-26.7-36.26c-18.24-5.98-31.67,3.07-41.26,16.74
		c-10.63,15.15-19.37,31.69-28.15,48.05c-22.99,42.87-40.69,89.57-69.28,128.25c-65.82,89.06-160.67,128.52-268.4,139.28
		c-33.86,3.38-68.1,2.8-102.16,4.2c-24.26,1-39.03,10.87-45.08,29.72c-6.31,19.64-0.04,43.69,17.4,55.36
		c14.07,9.41,29.57,18.32,45.73,22.7c68.44,18.56,138.65,22.29,208.75,15.23c76.2-7.67,145.32-34.71,200.83-89.79
		C970.3,656.84,1001.86,561.77,1001.42,454.52z M763.98,1226.18c1.23-121.17-31-199.7-94.93-263.79
		c-61.12-61.27-136.29-96.5-219.22-116.4c-17.8-4.27-36.87-3.17-47.67,16.19c-9.12,16.35-3.86,31.55,7.67,44
		c22.46,24.27,44.28,49.54,69.29,70.98c106.12,91.01,144.16,206.2,122.22,341.96c-6.43,39.81-20.8,78.29-30.57,117.63
		c-4.73,19.05-11.03,39.08,7.2,55.64c25.23,22.93,66.04,17.19,88.42-15.82C724.14,1391.36,760.86,1298.38,763.98,1226.18z
		 M1023.23,1460.51c63.57,2.23,124.26,17.29,180.12,47.12c38.07,20.33,72.94,46.58,110.16,68.62c10.33,6.12,24.69,10.87,35.96,8.94
		c31.78-5.43,50.32-42.39,34.27-70.61c-14.56-25.59-31.32-51.88-53.13-70.98c-40.62-35.57-84.26-68.15-129.13-98.27
		c-52.33-35.12-113.1-47.78-175.04-48.7c-47.05-0.7-92.76,11.91-135.5,32.39c-83.82,40.17-146.36,103.04-191.7,183.42
		c-6.93,12.28-7.54,26.67,1.78,38.89c9.36,12.25,22.94,18.23,37.15,12.24c31.41-13.24,63.05-26.58,92.64-43.34
		C890.85,1486.24,953.65,1462.94,1023.23,1460.51z M1407.42,406.51c-47.87-0.17-86.71,37.41-88.25,82.32
		c-1.8,52.34,35.74,92.94,88.13,92.54c50.32-0.38,86.52-36.71,88.07-87.37C1496.8,447.41,1455,406.67,1407.42,406.51z
		 M341.07,1204.66c-2.61,51.4,48.04,89.51,90.43,86.72c48.23-3.17,87.48-43.14,83.92-93.1c-3.39-47.6-41.67-83.99-90.67-82.65
		C377.13,1116.93,339.33,1157.15,341.07,1204.66z M744.34,495.87c6.55-41.51-35.75-88.11-86.35-88.13
		c-47.01-0.02-88.46,41.22-88.2,87.71c0.27,48.7,39.37,87.02,87.81,87.95C703.62,584.27,749.24,542.39,744.34,495.87z
		 M1637.12,1287.49c53.82,4.44,90.89-39.66,91.05-88.24c0.16-49.1-42.59-83.72-84-85.78c-50.39-2.51-93.68,43.98-91.78,83.72
		C1554.88,1249.19,1588.26,1287.32,1637.12,1287.49z M1038.68,1553.05c-52.49-3.5-92.72,36.18-92.12,90.93
		c0.41,37.9,33.53,83,89.11,82.22c49.17-0.69,86.86-37.59,86.87-86.52C1122.55,1591.15,1085.72,1553.1,1038.68,1553.05z"/>
	<path d="M1412.04,827.64c-88.48-1.07-167.77-27.52-233.44-87.72c-44.87-41.13-77.24-92.4-94.67-150.2
		c-16.4-54.39-27.03-110.79-36.43-166.94c-6.49-38.75,9.41-66.87,36.65-79.07c26.02-11.65,47.56-3.55,58.4,23.24
		c15.43,38.14,27.75,77.69,45.38,114.75c36.22,76.11,88.43,138.28,164.83,178.05c48.81,25.41,101.32,34.33,155.02,40.94
		c31.46,3.87,62.47,11.58,93.55,18.19c15.84,3.37,23.23,14.53,23.85,30.37c0.66,16.63-6.95,29.57-21.99,34.81
		c-37.53,13.07-75.21,26.31-113.75,35.69C1464.49,825.83,1437.9,825.24,1412.04,827.64z"/>
	<path d="M1298.89,1201.8c1.17-97.08,33.92-172.45,95.66-236.49c56.45-58.55,125.18-98.22,198.96-128.79
		c36.02-14.92,68.3-14.58,88.18,14.59c14.15,20.76,14.01,39.87-4.96,56.55c-22.26,19.57-47.44,35.78-70.09,54.96
		c-53.64,45.42-98.29,97.92-126.43,163.39c-27.75,64.54-29.61,130.99-18.06,199.01c6.75,39.74,12.59,79.64,18.18,119.56
		c2.33,16.66-3.3,32.66-19.19,38.18c-16.44,5.72-34.19,4.09-47.5-11.45c-55.38-64.64-96.25-136.46-109.73-221.72
		C1301.02,1231.22,1299.99,1212.56,1298.89,1201.8z"/>
	<path d="M1001.42,454.52c0.44,107.25-31.12,202.32-108.56,279.18c-55.5,55.09-124.63,82.13-200.83,89.79
		c-70.09,7.05-140.31,3.33-208.75-15.23c-16.15-4.38-31.66-13.29-45.73-22.7c-17.44-11.67-23.71-35.72-17.4-55.36
		c6.05-18.84,20.82-28.72,45.08-29.72c34.06-1.4,68.31-0.82,102.16-4.2C675.13,685.52,769.98,646.07,835.8,557
		c28.59-38.68,46.28-85.38,69.28-128.25c8.77-16.36,17.52-32.9,28.15-48.05c9.59-13.66,23.01-22.72,41.26-16.74
		c17.33,5.68,25.66,19.04,26.7,36.26C1002.26,418.27,1001.42,436.42,1001.42,454.52z"/>
	<path d="M763.98,1226.18c-3.12,72.2-39.84,165.19-97.59,250.39c-22.38,33.01-63.19,38.75-88.42,15.82
		c-18.23-16.56-11.93-36.59-7.2-55.64c9.77-39.33,24.14-77.82,30.57-117.63c21.94-135.76-16.11-250.95-122.22-341.96
		c-25.01-21.45-46.82-46.72-69.29-70.98c-11.53-12.45-16.79-27.65-7.67-44c10.8-19.36,29.87-20.46,47.67-16.19
		c82.93,19.9,158.11,55.13,219.22,116.4C732.99,1026.48,765.21,1105,763.98,1226.18z"/>
	<path d="M1023.23,1460.49c-69.57,2.44-132.38,25.75-192.42,59.74c-29.59,16.75-61.23,30.1-92.64,43.34
		c-14.21,5.99-27.79,0.01-37.15-12.24c-9.33-12.22-8.71-26.61-1.78-38.89c45.34-80.38,107.88-143.25,191.7-183.42
		c42.74-20.48,88.45-33.09,135.5-32.39c61.94,0.92,122.71,13.58,175.04,48.7c44.87,30.12,88.52,62.7,129.13,98.27
		c21.81,19.1,38.57,45.39,53.13,70.98c16.06,28.22-2.49,65.18-34.27,70.61c-11.26,1.93-25.63-2.82-35.96-8.94
		c-37.23-22.04-72.09-48.29-110.16-68.62C1147.49,1477.8,1086.8,1462.74,1023.23,1460.49z"/>
	<path d="M1407.42,406.51c47.57,0.17,89.37,40.9,87.95,87.49c-1.55,50.66-37.75,86.99-88.07,87.37
		c-52.39,0.4-89.93-40.2-88.13-92.54C1320.72,443.91,1359.55,406.34,1407.42,406.51z"/>
	<path d="M341.07,1204.66c-1.74-47.5,36.06-87.72,83.68-89.03c48.99-1.34,87.27,35.05,90.67,82.65
		c3.56,49.95-35.69,89.93-83.92,93.1C389.12,1294.16,338.47,1256.06,341.07,1204.66z"/>
	<path d="M744.34,495.87c4.9,46.52-40.72,88.4-86.74,87.52c-48.44-0.92-87.54-39.25-87.81-87.95c-0.26-46.48,41.2-87.73,88.2-87.71
		C708.58,407.76,750.88,454.37,744.34,495.87z"/>
	<path d="M1637.12,1287.49c-48.86-0.17-82.24-38.3-84.73-90.3c-1.9-39.74,41.39-86.23,91.78-83.72c41.41,2.06,84.15,36.68,84,85.78
		C1728.01,1247.83,1690.94,1291.93,1637.12,1287.49z"/>
	<path d="M1038.68,1553.05c47.04,0.05,83.88,38.11,83.86,86.64c-0.01,48.93-37.7,85.83-86.87,86.52
		c-55.57,0.78-88.7-44.33-89.11-82.22C945.96,1589.22,986.18,1549.55,1038.68,1553.05z"/>
</g>
</svg>
