<?xml version="1.0" encoding="utf-8"?>
<!-- Generator: Adobe Illustrator 23.0.1, SVG Export Plug-In . SVG Version: 6.00 Build 0)  -->
<svg version="1.1" id="Layer_1" xmlns="http://www.w3.org/2000/svg" xmlns:xlink="http://www.w3.org/1999/xlink" x="0px" y="0px"
	 viewBox="0 0 2060 2060" style="enable-background:new 0 0 2060 2060;" xml:space="preserve">
<g>
	<g>
		<path d="M1020.75,160.98c-22.28,0-40.19,17.94-40.19,40.19c0,20.71,15.58,37.94,36.17,39.98c23.84,2.37,44.22-16.2,44.22-39.98
			C1060.94,178.89,1043,160.98,1020.75,160.98z"/>
	</g>
</g>
<g>
	<g>
		<path d="M1825.44,241.41c-110.93,0-201.17-90.25-201.17-201.17c0-22.22-18.02-40.23-40.23-40.23H457.47
			c-22.22,0-40.23,18.02-40.23,40.23c0,110.93-90.25,201.17-201.17,201.17c-22.22,0-40.23,18.02-40.23,40.23v656.58
			c0,511.69,333.52,970.19,833.37,1120.08c3.77,1.13,7.66,1.69,11.56,1.69s7.79-0.57,11.56-1.7
			c489.02-146.69,833.36-597.19,833.36-1120.08V281.64C1865.67,259.42,1847.65,241.41,1825.44,241.41z M1785.2,938.23
			c0,480.59-306.67,896.79-764.45,1039.47C566.62,1836.16,256.3,1416.19,256.3,938.23V319.01
			c123.16-17.7,220.85-115.38,238.54-238.54h1051.82c17.69,123.16,115.38,220.85,238.54,238.54V938.23z"/>
	</g>
</g>
<g>
	<g>
		<path d="M1680.64,372.13c-83.9-36.75-150.35-103.19-187.1-187.1c-6.41-14.64-20.87-24.09-36.85-24.09h-275.08
			c-22.22,0-40.23,18.02-40.23,40.23s18.02,40.23,40.23,40.23h249.64c42.51,83.21,109.81,150.5,193.02,193.02v503.8
			c0,393.75-236.37,733.48-603.52,869.48c-367.14-136-603.52-475.74-603.52-869.48v-503.8c83.21-42.51,150.5-109.81,193.02-193.02
			h249.64c22.22,0,40.23-18.02,40.23-40.23s-18.02-40.23-40.23-40.23H584.81c-15.98,0-30.44,9.46-36.85,24.09
			c-36.75,83.9-103.19,150.35-187.1,187.1c-14.63,6.41-24.09,20.88-24.09,36.85v529.24c0,431.36,266.8,807.31,670.56,950.2
			c4.34,1.54,8.88,2.31,13.42,2.31s9.08-0.77,13.42-2.31c403.43-142.76,670.56-518.48,670.56-950.2V408.98
			C1704.73,393,1695.28,378.54,1680.64,372.13z"/>
	</g>
</g>
<g>
	<g>
		<path d="M1020.75,587.42c-199.67,0-362.11,162.44-362.11,362.11s162.44,362.11,362.11,362.11s362.11-162.44,362.11-362.11
			S1220.42,587.42,1020.75,587.42z M1020.75,1231.17c-155.3,0-281.64-126.34-281.64-281.64s126.34-281.64,281.64-281.64
			s281.64,126.34,281.64,281.64S1176.05,1231.17,1020.75,1231.17z"/>
	</g>
</g>
<g>
	<g>
		<path d="M1210.14,840.61c-15.72-15.71-41.18-15.71-56.9,0l-172.72,172.72l-52.02-52.01c-15.72-15.71-41.18-15.71-56.9,0
			c-15.71,15.71-15.71,41.19,0,56.9l80.47,80.47c7.86,7.85,18.15,11.78,28.45,11.78s20.59-3.93,28.45-11.78l201.17-201.17
			C1225.85,881.8,1225.85,856.32,1210.14,840.61z"/>
	</g>
</g>
</svg>
