<?xml version="1.0" encoding="utf-8"?>
<!-- Generator: Adobe Illustrator 23.0.1, SVG Export Plug-In . SVG Version: 6.00 Build 0)  -->
<svg version="1.1" id="Layer_1" xmlns="http://www.w3.org/2000/svg" xmlns:xlink="http://www.w3.org/1999/xlink" x="0px" y="0px"
	 viewBox="0 0 2060 2060" style="enable-background:new 0 0 2060 2060;" xml:space="preserve">
<g>
	<g>
		<path d="M1962.81,22.71c-4.01-0.47-8.04-0.71-12.07-0.71H103.56C46.36,22.01-0.01,68.38,0,125.59c0,4.04,0.24,8.09,0.71,12.11
			L53.5,586.53c6.15,52.15,50.34,91.45,102.85,91.46h187.54l153.67,645.42c11,46.74,52.76,79.74,100.78,79.62h857.61
			c48.02,0.12,89.78-32.87,100.78-79.62l153.67-645.42h187.54c52.5-0.03,96.68-39.32,102.82-91.46l52.79-448.83
			C2060.25,80.88,2019.62,29.41,1962.81,22.71z M1489.59,1307.42c-3.7,15.58-17.62,26.57-33.63,26.55H598.35
			c-16.01,0.02-29.93-10.97-33.63-26.55L414.88,677.98h1224.55L1489.59,1307.42z M1984.96,129.58l-52.72,448.83
			c-2.03,17.4-16.77,30.52-34.28,30.52H156.35c-17.52,0-32.25-13.12-34.28-30.52L69.28,129.58c-2.21-18.94,11.35-36.08,30.29-38.3
			c1.32-0.16,2.66-0.23,4-0.23h1847.11c19.07,0,34.52,15.47,34.52,34.53C1985.19,126.92,1985.11,128.26,1984.96,129.58z"/>
	</g>
</g>
<g>
	<g>
		<path d="M817.03,1190.58L787.82,810.8c-2.92-35.9-32.83-63.6-68.84-63.77H587.2c-38.14,0-69.05,30.91-69.05,69.05
			c0,5.22,0.59,10.42,1.76,15.5l87.66,379.78c7.12,31.47,35.17,53.74,67.43,53.55h73.19c38.14,0,69.05-30.92,69.05-69.06
			C817.23,1194.1,817.17,1192.34,817.03,1190.58z M674.99,1195.86l-87.8-379.78h131.78l29.21,379.78H674.99z"/>
	</g>
</g>
<g>
	<g>
		<path d="M1133.25,747.24c-1.76-0.13-3.52-0.2-5.28-0.2H926.34c-38.14,0-69.05,30.92-69.05,69.06c0,1.76,0.07,3.52,0.2,5.28
			l29.21,379.78c2.92,35.9,32.83,63.6,68.84,63.77h143.21c36.02-0.17,65.92-27.87,68.84-63.77l29.21-379.78
			C1199.73,783.34,1171.27,750.15,1133.25,747.24z M1098.76,1195.86H955.55l-29.28-379.78h0.07h201.63L1098.76,1195.86z"/>
	</g>
</g>
<g>
	<g>
		<path d="M1482.47,748.79c-5.04-1.16-10.19-1.75-15.36-1.76h-131.78c-36.02,0.17-65.92,27.87-68.84,63.77l-29.21,379.78
			c-2.92,38.03,25.54,71.21,63.57,74.13c1.76,0.13,3.52,0.2,5.28,0.2h73.19c32.21,0.13,60.19-22.14,67.29-53.55l87.66-379.78
			C1542.83,794.42,1519.64,757.36,1482.47,748.79z M1379.31,1195.86h-73.19l29.21-379.78h131.75L1379.31,1195.86z"/>
	</g>
</g>
<g>
	<g>
		<path d="M1466.71,1828.44c-13.25-13.72-35.1-14.09-48.82-0.85c-0.28,0.28-0.57,0.56-0.85,0.85
			c-215.31,215.34-564.42,215.35-779.76,0.03c-0.01-0.01-0.02-0.02-0.03-0.03c-13.25-13.72-35.1-14.09-48.82-0.85
			c-13.72,13.25-14.1,35.1-0.85,48.82c0.28,0.29,0.56,0.57,0.85,0.85c242.26,242.3,635.07,242.33,877.36,0.07
			c0.02-0.02,0.05-0.05,0.07-0.07C1479.58,1864.01,1479.96,1842.15,1466.71,1828.44z"/>
	</g>
</g>
<g>
	<g>
		<path d="M1363.14,1724.86c-13.25-13.72-35.1-14.09-48.82-0.85c-0.28,0.28-0.57,0.56-0.85,0.85
			c-158.23,157.88-414.41,157.88-572.64,0c-13.48-13.48-35.34-13.48-48.82,0c-13.48,13.48-13.48,35.34,0,48.82
			c185.02,185.09,485.05,185.15,670.14,0.13c0.04-0.04,0.09-0.09,0.13-0.13C1376.01,1760.43,1376.38,1738.58,1363.14,1724.86z"/>
	</g>
</g>
<g>
	<g>
		<path d="M1259.56,1621.29c-13.25-13.72-35.1-14.09-48.82-0.85c-0.28,0.28-0.57,0.56-0.85,0.85
			c-101.04,100.65-264.44,100.65-365.49,0c-13.48-13.48-35.34-13.48-48.82,0c-13.48,13.48-13.48,35.34,0,48.82
			c128.01,127.61,335.12,127.61,463.12,0C1272.43,1656.86,1272.81,1635,1259.56,1621.29z"/>
	</g>
</g>
<g>
	<g>
		<path d="M1154.29,1516.71c-13.38-12.93-34.59-12.93-47.97,0c-43.76,43.64-114.58,43.64-158.33,0
			c-13.72-13.25-35.57-12.87-48.82,0.85c-12.92,13.38-12.92,34.59,0,47.97c70.73,70.56,185.24,70.56,255.97,0
			C1168.38,1551.81,1168.01,1529.96,1154.29,1516.71z"/>
	</g>
</g>
</svg>
