<?xml version="1.0" encoding="utf-8"?>
<!-- Generator: Adobe Illustrator 23.0.1, SVG Export Plug-In . SVG Version: 6.00 Build 0)  -->
<svg version="1.1" id="Layer_1" xmlns="http://www.w3.org/2000/svg" xmlns:xlink="http://www.w3.org/1999/xlink" x="0px" y="0px"
	 viewBox="0 0 2060 2060" style="enable-background:new 0 0 2060 2060;" xml:space="preserve">
<style type="text/css">
	.st0{fill:#FFFFFF;}
</style>
<g>
	<path class="st0" d="M993.18,1884.71c0,0.28,0,0.56,0,0.83c208.69,0,417.38-0.01,626.07,0.01
		c103.22,0.01,163.41-59.45,163.44-162.07c0.06-244.86-1.59-489.74,0.67-734.58c0.85-91.63-33.77-160.09-107.83-212.03
		c-185.95-130.41-370.94-262.15-556.91-392.51c-80.08-56.12-162.82-55.9-242.87,0.4c-191.48,134.63-382.6,269.76-573.21,405.61
		c-60.35,43.01-90.51,102.99-90.47,177.87c0.11,253.2-0.23,506.42-0.17,759.63c0.02,95.87,60.3,156.72,155.22,156.8
		C575.8,1884.83,784.48,1884.71,993.18,1884.71z M1586.97,138.67c-37.11-7.08-75.19-7.72-112.61-2.43c-0.15,0.02-0.3,0.05-0.45,0.06
		c-42.6,6.06-64.29,29.36-59.91,63.88c4.2,33.05,28.22,49.42,70.36,47.92c164.49-5.84,258.24,63.32,303.35,223.79
		c10.77,38.31,37.49,57.81,68.21,49.8c31.96-8.34,48.18-37.93,41.3-75.33C1868.63,290.98,1742.68,168.33,1586.97,138.67z
		 M1483.13,454.52c58.26-0.71,94.9,26.89,112.93,85.04c12.95,41.76,38.49,59.72,71.66,50.42c30.83-8.66,45.69-39.1,37.83-77.47
		c-20.73-101.16-122.99-179.14-226.04-172.35c-45.2,2.98-71.7,25.77-70.46,60.6C1410.31,435.83,1436.82,455.08,1483.13,454.52z"/>
	<path d="M993.18,1884.71c-208.69,0-417.38,0.11-626.07-0.05c-94.91-0.07-155.19-60.92-155.22-156.8
		c-0.06-253.2,0.28-506.42,0.17-759.63c-0.04-74.9,30.13-134.86,90.47-177.87c190.6-135.86,381.73-270.98,573.19-405.61
		c80.05-56.29,162.8-56.52,242.87-0.4c185.98,130.36,370.98,262.11,556.91,392.51c74.07,51.94,108.68,120.4,107.83,212.03
		c-2.26,244.84-0.61,489.71-0.67,734.58c-0.02,102.63-60.23,162.09-163.44,162.07c-208.69-0.02-417.38-0.01-626.07-0.01
		C993.18,1885.27,993.18,1884.99,993.18,1884.71z M1553.98,1691.41c10.21-0.79,18.27-9.21,18.33-19.46c0-0.04,0-0.09,0-0.12
		c0.23-233.65,1.06-467.3-0.83-700.93c-0.15-18-15.24-41.76-30.6-52.84c-168.6-121.64-338.83-241.02-508.05-361.8
		c-23.36-16.67-40.2-18.92-65.95-0.4C799.1,676.49,630.07,795.4,460.4,913.4c-28.32,19.7-39.11,41.99-38.9,75.93
		c1.34,218.34,1.95,436.71,0.46,655.03c-0.27,38.72,11.22,49.87,49.64,49.71c351.86-1.43,703.73-1.03,1055.59-1.31
		C1535.92,1692.78,1544.67,1692.12,1553.98,1691.41z"/>
	<path d="M1511.13,131.93c0.74-0.09,1.5-0.12,2.25-0.13c188.3-0.38,350.85,135.31,383.86,314.57c6.88,37.39-9.34,66.99-41.3,75.33
		c-30.72,8.01-57.43-11.49-68.21-49.8c-45.12-160.48-138.87-229.64-303.35-223.79c-42.14,1.5-66.18-14.87-70.36-47.92
		c-4.38-34.52,17.33-57.82,59.91-63.88C1488.36,134.25,1502.88,132.86,1511.13,131.93z"/>
	<path d="M1483.13,454.52c-46.32,0.56-72.83-18.69-74.08-53.79c-1.24-34.83,25.27-57.63,70.46-60.6
		c103.05-6.79,205.3,71.19,226.04,172.35c7.87,38.38-6.99,68.83-37.83,77.47c-33.17,9.31-58.71-8.66-71.66-50.42
		C1578.04,481.4,1541.4,453.81,1483.13,454.52z"/>
	<path class="st0" d="M1572.31,1671.95c-0.06,10.24-8.11,18.67-18.33,19.46c-9.31,0.72-18.06,1.37-26.8,1.37
		c-351.86,0.28-703.73-0.12-1055.59,1.31c-38.41,0.16-49.91-11.01-49.64-49.71c1.48-218.34,0.89-436.69-0.46-655.03
		c-0.21-33.94,10.58-56.24,38.9-75.93c169.65-118,338.69-236.91,506.48-357.54c25.74-18.51,42.59-16.26,65.95,0.4
		c169.22,120.78,339.46,240.16,508.05,361.8c15.36,11.08,30.45,34.84,30.6,52.84c1.88,233.63,1.06,467.28,0.83,700.93
		C1572.31,1671.88,1572.31,1671.91,1572.31,1671.95z"/>
</g>
</svg>
